# Blender v2.78 (sub 0) OBJ File: ''
# www.blender.org
mtllib cube.mtl
o Cube
v 1.000000 -0.929289 -0.929289
v 0.929289 -1.000000 -0.929289
v 0.929289 -0.929289 -1.000000
v 0.979289 -0.979289 -0.929289
v 0.970114 -0.970114 -0.970114
v 0.929289 -0.979289 -0.979289
v 0.979289 -0.929289 -0.979289
v 1.000000 -0.929289 0.929289
v 0.929289 -0.929289 1.000000
v 0.929289 -1.000000 0.929289
v 0.979289 -0.929289 0.979289
v 0.970114 -0.970114 0.970114
v 0.929289 -0.979289 0.979289
v 0.979289 -0.979289 0.929289
v -0.929289 -0.929289 1.000000
v -1.000000 -0.929289 0.929289
v -0.929289 -1.000000 0.929289
v -0.979290 -0.929289 0.979289
v -0.970114 -0.970114 0.970114
v -0.979290 -0.979289 0.929289
v -0.929290 -0.979289 0.979289
v -0.929289 -0.929289 -1.000000
v -0.929289 -1.000000 -0.929290
v -1.000000 -0.929289 -0.929290
v -0.929289 -0.979289 -0.979290
v -0.970114 -0.970114 -0.970114
v -0.979289 -0.979289 -0.929290
v -0.979289 -0.929289 -0.979290
v 0.929290 0.929289 -0.999999
v 0.929290 1.000000 -0.929289
v 1.000000 0.929289 -0.929289
v 0.929290 0.979289 -0.979289
v 0.970115 0.970114 -0.970114
v 0.979290 0.979289 -0.929289
v 0.979290 0.929289 -0.979289
v 0.929289 0.929289 1.000001
v 0.999999 0.929289 0.929290
v 0.929289 1.000000 0.929290
v 0.979289 0.929289 0.979290
v 0.970114 0.970114 0.970115
v 0.979289 0.979289 0.929290
v 0.929289 0.979289 0.979290
v -1.000000 0.929289 0.929289
v -0.929290 0.929289 1.000000
v -0.929290 1.000000 0.929289
v -0.979290 0.929289 0.979289
v -0.970114 0.970114 0.970114
v -0.929290 0.979289 0.979289
v -0.979290 0.979289 0.929289
v -1.000000 0.929289 -0.929289
v -0.929289 1.000000 -0.929289
v -0.929289 0.929289 -1.000000
v -0.979289 0.979289 -0.929289
v -0.970114 0.970114 -0.970114
v -0.929289 0.979289 -0.979289
v -0.979289 0.929289 -0.979289
vt 0.0281 0.0280
vt 0.9719 0.9720
vt 0.0280 0.9719
vt 0.9720 0.9719
vt 0.0280 0.0281
vt 0.9719 0.0280
vt 0.9755 0.9684
vt 0.0245 0.0316
vt 0.9684 0.0245
vt 0.9755 0.9684
vt 0.0245 0.0316
vt 0.9684 0.0245
vt 0.9755 0.9684
vt 0.0245 0.0316
vt 0.9684 0.0245
vt 0.0280 0.9719
vt 0.9720 0.0281
vt 0.9719 0.9720
vt 0.9720 0.0281
vt 0.0281 0.9720
vt 0.0316 0.9755
vt 0.0316 0.9755
vt 0.0316 0.9755
vt 0.0281 0.0280
vt 0.9915 0.0010
vt 0.9958 0.0233
vt 0.9953 0.9953
vt 0.9729 0.9994
vt 0.0048 0.0047
vt 0.0271 0.0006
vt 0.0010 0.0085
vt 0.0233 0.0042
vt 0.9952 0.0047
vt 0.9994 0.0270
vt 0.0047 0.9953
vt 0.0006 0.9729
vt 0.0047 0.0048
vt 0.0271 0.0006
vt 0.9915 0.0010
vt 0.9958 0.0233
vt 0.0048 0.0047
vt 0.0271 0.0006
vt 0.9953 0.0048
vt 0.9994 0.0271
vt 0.9953 0.0047
vt 0.9994 0.0271
vt 0.0010 0.0085
vt 0.0233 0.0042
vt 0.0047 0.9952
vt 0.0006 0.9729
vt 0.9915 0.0010
vt 0.9958 0.0233
vt 0.9990 0.9915
vt 0.9767 0.9958
vt 0.9953 0.9952
vt 0.9729 0.9994
vt 0.0085 0.9990
vt 0.0042 0.9767
vt 0.0010 0.0085
vt 0.0233 0.0042
vt 0.9990 0.9915
vt 0.9767 0.9958
vt 0.0048 0.9953
vt 0.0006 0.9730
vt 0.0085 0.9990
vt 0.0042 0.9767
vt 0.0085 0.9990
vt 0.0042 0.9767
vt 0.9990 0.9915
vt 0.9767 0.9958
vt 0.9952 0.9953
vt 0.9729 0.9994
vt 0.9692 -0.0029
vt 0.0271 0.9994
vt 0.9994 0.9729
vt 0.9730 0.0006
vt 0.0006 0.0270
vt 1.0029 0.9692
vt 0.9729 0.0006
vt 0.0006 0.0271
vt -0.0029 0.0308
vt 0.9994 0.9729
vt 0.9692 -0.0029
vt 0.9729 0.0006
vt 0.0006 0.0271
vt 1.0029 0.9692
vt -0.0030 0.0309
vt 0.9994 0.9730
vt 0.9692 -0.0029
vt 0.0270 0.9994
vt -0.0029 0.0309
vt 0.0308 1.0030
vt 0.0308 1.0029
vt 0.0271 0.9994
vt 0.0309 1.0030
vt 1.0029 0.9692
vn 0.0000 0.0000 -1.0000
vn 0.0000 -0.0000 1.0000
vn -1.0000 -0.0000 -0.0000
vn 0.0000 1.0000 0.0000
vn 1.0000 -0.0000 0.0000
vn 0.0000 -1.0000 0.0000
vn 0.9673 -0.1794 -0.1794
vn 0.5773 -0.5773 -0.5773
vn 0.6993 -0.1479 -0.6993
vn 0.1794 -0.9673 -0.1794
vn 0.6993 -0.6993 -0.1479
vn 0.1794 -0.1794 -0.9673
vn 0.1479 -0.6993 -0.6993
vn 0.9673 -0.1794 0.1794
vn 0.5773 -0.5773 0.5773
vn 0.6993 -0.6993 0.1479
vn 0.1794 -0.1794 0.9673
vn 0.6993 -0.1479 0.6993
vn 0.1794 -0.9673 0.1794
vn 0.1479 -0.6993 0.6993
vn -0.1794 -0.1794 0.9673
vn -0.5773 -0.5773 0.5773
vn -0.1479 -0.6993 0.6993
vn -0.9673 -0.1794 0.1794
vn -0.6993 -0.1479 0.6993
vn -0.1794 -0.9673 0.1794
vn -0.6993 -0.6993 0.1479
vn -0.1794 -0.1794 -0.9673
vn -0.5773 -0.5773 -0.5773
vn -0.6993 -0.1479 -0.6993
vn -0.1794 -0.9673 -0.1794
vn -0.1479 -0.6993 -0.6993
vn -0.9673 -0.1794 -0.1794
vn -0.6993 -0.6993 -0.1479
vn 0.1794 0.1794 -0.9673
vn 0.5773 0.5773 -0.5773
vn 0.6993 0.1479 -0.6993
vn 0.1794 0.9673 -0.1794
vn 0.1479 0.6993 -0.6993
vn 0.9673 0.1794 -0.1794
vn 0.6993 0.6993 -0.1479
vn 0.1794 0.1794 0.9673
vn 0.5773 0.5773 0.5773
vn 0.1479 0.6993 0.6993
vn 0.9673 0.1794 0.1794
vn 0.6993 0.1479 0.6993
vn 0.1794 0.9673 0.1794
vn 0.6993 0.6993 0.1479
vn -0.9673 0.1794 0.1794
vn -0.5773 0.5773 0.5773
vn -0.6993 0.6993 0.1479
vn -0.1794 0.1794 0.9673
vn -0.6993 0.1479 0.6993
vn -0.1794 0.9673 0.1794
vn -0.1479 0.6993 0.6993
vn -0.9673 0.1794 -0.1794
vn -0.5773 0.5773 -0.5773
vn -0.6993 0.1479 -0.6993
vn -0.1794 0.9673 -0.1794
vn -0.6993 0.6993 -0.1479
vn -0.1794 0.1794 -0.9673
vn -0.1479 0.6993 -0.6993
usemtl Material
s off
f 3/1/1 52/2/1 29/3/1
f 36/4/2 15/5/2 9/6/2
f 43/7/3 24/8/3 16/9/3
f 51/10/4 38/11/4 30/12/4
f 31/13/5 8/14/5 1/15/5
f 10/16/6 23/17/6 2/18/6
f 3/1/1 22/19/1 52/2/1
f 36/4/2 44/20/2 15/5/2
f 43/7/3 50/21/3 24/8/3
f 51/10/4 45/22/4 38/11/4
f 31/13/5 37/23/5 8/14/5
f 10/16/6 17/24/6 23/17/6
s 1
f 1/15/7 5/25/8 7/26/9
f 2/18/10 5/27/8 4/28/11
f 3/1/12 5/29/8 6/30/13
f 8/14/14 12/31/15 14/32/16
f 9/6/17 12/33/15 11/34/18
f 10/16/19 12/35/15 13/36/20
f 15/5/21 19/37/22 21/38/23
f 16/9/24 19/39/22 18/40/25
f 17/24/26 19/41/22 20/42/27
f 22/19/28 26/43/29 28/44/30
f 23/17/31 26/45/29 25/46/32
f 24/8/33 26/47/29 27/48/34
f 29/3/35 33/49/36 35/50/37
f 30/12/38 33/51/36 32/52/39
f 31/13/40 33/53/36 34/54/41
f 36/4/42 40/55/43 42/56/44
f 37/23/45 40/57/43 39/58/46
f 38/11/47 40/59/43 41/60/48
f 43/7/49 47/61/50 49/62/51
f 44/20/52 47/63/50 46/64/53
f 45/22/54 47/65/50 48/66/55
f 50/21/56 54/67/57 56/68/58
f 51/10/59 54/69/57 53/70/60
f 52/2/61 54/71/57 55/72/62
f 8/14/14 4/73/11 1/15/7
f 14/74/16 2/18/10 4/28/11
f 23/17/31 6/75/13 2/18/10
f 25/76/32 3/1/12 6/30/13
f 29/3/35 7/77/9 3/1/12
f 35/78/37 1/15/7 7/26/9
f 15/5/21 13/79/20 9/6/17
f 21/80/23 10/16/19 13/36/20
f 37/23/45 11/81/18 8/14/14
f 39/82/46 9/6/17 11/34/18
f 24/8/33 20/83/27 16/9/24
f 27/84/34 17/24/26 20/42/27
f 44/20/52 18/85/25 15/5/21
f 46/86/53 16/9/24 18/40/25
f 50/21/56 28/87/30 24/8/33
f 56/88/58 22/19/28 28/44/30
f 38/11/47 34/89/41 30/12/38
f 34/54/41 37/23/45 31/13/40
f 29/3/35 55/72/62 32/90/39
f 32/52/39 51/10/59 30/12/38
f 38/11/47 48/66/55 42/91/44
f 42/56/44 44/20/52 36/4/42
f 51/10/59 49/92/51 45/22/54
f 49/62/51 50/21/56 43/7/49
f 1/15/7 4/73/11 5/25/8
f 2/18/10 6/75/13 5/27/8
f 3/1/12 7/77/9 5/29/8
f 8/14/14 11/81/18 12/31/15
f 9/6/17 13/79/20 12/33/15
f 10/16/19 14/74/16 12/35/15
f 15/5/21 18/85/25 19/37/22
f 16/9/24 20/83/27 19/39/22
f 17/24/26 21/80/23 19/41/22
f 22/19/28 25/76/32 26/43/29
f 23/17/31 27/84/34 26/45/29
f 24/8/33 28/87/30 26/47/29
f 29/3/35 32/90/39 33/49/36
f 30/12/38 34/89/41 33/51/36
f 31/13/40 35/78/37 33/53/36
f 36/4/42 39/82/46 40/55/43
f 37/23/45 41/93/48 40/57/43
f 38/11/47 42/91/44 40/59/43
f 43/7/49 46/86/53 47/61/50
f 44/20/52 48/94/55 47/63/50
f 45/22/54 49/92/51 47/65/50
f 50/21/56 53/95/60 54/67/57
f 51/10/59 55/96/62 54/69/57
f 52/2/61 56/88/58 54/71/57
f 8/14/14 14/32/16 4/73/11
f 14/74/16 10/16/19 2/18/10
f 23/17/31 25/46/32 6/75/13
f 25/76/32 22/19/28 3/1/12
f 29/3/35 35/50/37 7/77/9
f 35/78/37 31/13/40 1/15/7
f 15/5/21 21/38/23 13/79/20
f 21/80/23 17/24/26 10/16/19
f 37/23/45 39/58/46 11/81/18
f 39/82/46 36/4/42 9/6/17
f 24/8/33 27/48/34 20/83/27
f 27/84/34 23/17/31 17/24/26
f 44/20/52 46/64/53 18/85/25
f 46/86/53 43/7/49 16/9/24
f 50/21/56 56/68/58 28/87/30
f 56/88/58 52/2/61 22/19/28
f 38/11/47 41/60/48 34/89/41
f 34/54/41 41/93/48 37/23/45
f 29/3/35 52/2/61 55/72/62
f 32/52/39 55/96/62 51/10/59
f 38/11/47 45/22/54 48/66/55
f 42/56/44 48/94/55 44/20/52
f 51/10/59 53/70/60 49/92/51
f 49/62/51 53/95/60 50/21/56
